# xmcd
#
# Track frame offsets:
#	150
#	17167
#	34278
#	56648
#	73358
#	86470
#	101427
#	121297
#	138661
#	156370
#	178756
#	195799
#	213960
#	231678
#	248133
#	260827
#	280039
#	297694
#
# Disc length: 4108
#
# Revision: 1
# Processed by: cddbd v1.5.1PL0 Copyright (c) Steve Scherf et al.
# Submitted via: ExactAudioCopy v0.95a3
# Normalized: r0:TDELIM( - ),TSWAP
#
DISCID=1a100a12
DTITLE=Various Artist - The World of Country Hits CD1
DYEAR=1900
DGENRE=
TTITLE0=Dixie Chicks - Landslide
TTITLE1=Johnny Cash - Hurt
TTITLE2=Kid Rock and Sheryl Crow - Picture
TTITLE3=Trisha Yearwood and Don Henley - Inside out
TTITLE4=Shania Twain - Up!
TTITLE5=Faith Hill - This kiss
TTITLE6=Reba McEntire - What if
TTITLE7=Garth Brooks - Two Pina Coladas
TTITLE8=Lonestar - Not a day goes by
TTITLE9=Alan Jackson - Where were you
TTITLE10=Tim McGraw - The cowboy in me
TTITLE11=Martina McBride - Concrete Angel
TTITLE12=Darryl Worley - Have you forgotten
TTITLE13=Garry Allan - The one
TTITLE14=Jack Greene - I can't stop loving you
TTITLE15=Jerry Wallace - Help me make it through the night
TTITLE16=Roy Drusky - Me and Bobby McGee
TTITLE17=Dave Dudley - Six days on the road
EXTD=
EXTT0=
EXTT1=
EXTT2=
EXTT3=
EXTT4=
EXTT5=
EXTT6=
EXTT7=
EXTT8=
EXTT9=
EXTT10=
EXTT11=
EXTT12=
EXTT13=
EXTT14=
EXTT15=
EXTT16=
EXTT17=
PLAYORDER=
